<?xml version="1.0" encoding="UTF-8" standalone="no"?>
<!-- Created with Inkscape (http://www.inkscape.org/) -->

<svg
   width="1920"
   height="1080"
   viewBox="0 0 508 285.75"
   version="1.1"
   id="svg1"
   sodipodi:docname="html-impostor.svg"
   inkscape:version="1.3.2 (091e20ef0f, 2023-11-25, custom)"
   xmlns:inkscape="http://www.inkscape.org/namespaces/inkscape"
   xmlns:sodipodi="http://sodipodi.sourceforge.net/DTD/sodipodi-0.dtd"
   xmlns="http://www.w3.org/2000/svg"
   xmlns:svg="http://www.w3.org/2000/svg"
   xmlns:rdf="http://www.w3.org/1999/02/22-rdf-syntax-ns#"
   xmlns:cc="http://creativecommons.org/ns#">
  <sodipodi:namedview
     id="namedview1"
     pagecolor="#ffffff"
     bordercolor="#999999"
     borderopacity="1"
     inkscape:showpageshadow="2"
     inkscape:pageopacity="0"
     inkscape:pagecheckerboard="0"
     inkscape:deskcolor="#d1d1d1"
     inkscape:zoom="0.2484375"
     inkscape:cx="962.01258"
     inkscape:cy="541.38365"
     inkscape:window-width="892"
     inkscape:window-height="1164"
     inkscape:window-x="0"
     inkscape:window-y="0"
     inkscape:window-maximized="1"
     inkscape:current-layer="svg1" />
  <defs
     id="defs1">
    <rect
       x="212.52371"
       y="545.58009"
       width="1582.3219"
       height="289.95311"
       id="rect2" />
  </defs>
  <g
     id="layer1">
    <rect
       style="fill:#bf616a;stroke:#3b4252;stroke-width:2.11667;stroke-linecap:round;stroke-linejoin:round;stroke-dasharray:none"
       id="rect4"
       width="32.595783"
       height="97.454758"
       x="-106.06809"
       y="167.37625"
       ry="16.297892"
       transform="rotate(-75)" />
    <path
       id="path1"
       style="fill:#bf616a;stroke:#3b4252;stroke-width:2.11667;stroke-linecap:round;stroke-linejoin:round;stroke-dasharray:none"
       d="m 254,30.5238 c -11.45261,-1.12e-4 -22.70348,3.133101 -32.62178,9.084717 -20.18633,12.113462 -32.6215,34.499957 -32.62127,58.726646 V 255.2262 h 46.2623 v -52.45496 h 37.9615 v 52.45496 h 46.2623 V 98.335163 C 319.24328,74.108474 306.80811,51.721979 286.62178,39.608517 276.70348,33.656901 265.45261,30.523688 254,30.5238 Z" />
    <path
       id="rect1"
       style="fill:#5e81ac;stroke:#3b4252;stroke-width:2.11667;stroke-linecap:round;stroke-linejoin:round"
       d="m 231.75755,80.201057 h 44.4849 c 10.17901,0 18.37367,8.194656 18.37367,18.373667 0,10.179016 -8.19466,18.373666 -18.37367,18.373666 h -44.4849 c -10.17901,0 -18.37367,-8.19465 -18.37367,-18.373666 0,-10.179011 8.19466,-18.373667 18.37367,-18.373667 z" />
    <g
       id="g7">
      <text
         xml:space="preserve"
         transform="matrix(0.26458333,0,0,0.26458333,-11.829507,6.8883555)"
         id="text1"
         style="font-style:normal;font-variant:normal;font-weight:normal;font-stretch:normal;font-size:200px;font-family:'Droid Sans';-inkscape-font-specification:'Droid Sans';text-align:center;white-space:pre;shape-inside:url(#rect2);display:inline;fill:#5e81ac;stroke:#3b4252;stroke-width:8;stroke-linecap:round;stroke-linejoin:round;stroke-dasharray:none"><tspan
           x="557.05371"
           y="722.78989"
           id="tspan5"><tspan
             style="font-weight:bold;-inkscape-font-specification:'Droid Sans Bold';fill:#d8dee9"
             id="tspan2">Impostor</tspan></tspan></text>
      <text
         xml:space="preserve"
         style="font-style:normal;font-variant:normal;font-weight:bold;font-stretch:normal;font-size:16.9333px;font-family:'Droid Sans';-inkscape-font-specification:'Droid Sans Bold';text-align:center;text-anchor:middle;fill:#5e81ac;stroke:#3b4252;stroke-width:0.79375;stroke-linecap:round;stroke-linejoin:round;stroke-dasharray:none"
         x="254"
         y="220.64845"
         id="text3"><tspan
           id="tspan3"
           style="font-size:16.9333px;fill:#d8dee9;stroke:#3b4252;stroke-width:0.79375;stroke-dasharray:none"
           x="254"
           y="220.64845">Kill everyone and don't get caught!</tspan></text>
    </g>
    <g
       id="g8"
       transform="matrix(1.230186,-0.32962735,0.32962735,1.230186,1.7958095,-5.1833104)">
      <path
         id="path4"
         style="fill:#4c566a;stroke:#3b4252;stroke-width:1.5875;stroke-linecap:round;stroke-linejoin:round;stroke-dasharray:none"
         d="m 83.763442,76.217235 c 5.03926,0 3.98171,41.117255 3.98171,41.117255 h -7.96343 c 0,0 -1.05755,-41.117255 3.98172,-41.117255 z" />
      <path
         id="rect7"
         style="fill:#d08770;stroke:#3b4252;stroke-width:1.5875;stroke-linecap:round;stroke-linejoin:round;stroke-dasharray:none"
         d="m 75.842474,116.87221 c -1.658579,0 -2.994133,1.33555 -2.994133,2.99413 0,1.65858 1.335554,2.99361 2.994133,2.99361 h 3.798217 v 14.20017 c 0,1.65858 1.335037,2.99413 2.993616,2.99413 h 2.25826 c 1.658579,0 2.994133,-1.33555 2.994133,-2.99413 v -14.20017 h 3.798217 c 1.658579,0 2.993616,-1.33503 2.993616,-2.99361 0,-1.65858 -1.335037,-2.99413 -2.993616,-2.99413 h -6.79235 -2.25826 z" />
    </g>
  </g>
  <metadata
     id="metadata1">
    <rdf:RDF>
      <cc:Work
         rdf:about="">
        <cc:license
           rdf:resource="http://creativecommons.org/publicdomain/zero/1.0/" />
      </cc:Work>
      <cc:License
         rdf:about="http://creativecommons.org/publicdomain/zero/1.0/">
        <cc:permits
           rdf:resource="http://creativecommons.org/ns#Reproduction" />
        <cc:permits
           rdf:resource="http://creativecommons.org/ns#Distribution" />
        <cc:permits
           rdf:resource="http://creativecommons.org/ns#DerivativeWorks" />
      </cc:License>
    </rdf:RDF>
  </metadata>
</svg>
