<?xml version="1.0" encoding="UTF-8" standalone="no"?>
<!-- Created with Inkscape (http://www.inkscape.org/) -->

<svg
   width="400"
   height="660"
   viewBox="0 0 508 285.75"
   version="1.1"
   id="svg1"
   inkscape:version="1.3.2 (091e20ef0f, 2023-11-25, custom)"
   sodipodi:docname="html-ejected.svg"
   xmlns:inkscape="http://www.inkscape.org/namespaces/inkscape"
   xmlns:sodipodi="http://sodipodi.sourceforge.net/DTD/sodipodi-0.dtd"
   xmlns="http://www.w3.org/2000/svg"
   xmlns:svg="http://www.w3.org/2000/svg"
   xmlns:rdf="http://www.w3.org/1999/02/22-rdf-syntax-ns#"
   xmlns:cc="http://creativecommons.org/ns#">
  <sodipodi:namedview
     id="namedview1"
     pagecolor="#2e3440"
     bordercolor="#4c566a"
     borderopacity="1"
     inkscape:showpageshadow="2"
     inkscape:pageopacity="0"
     inkscape:pagecheckerboard="false"
     inkscape:deskcolor="#3b4252"
     inkscape:document-units="px"
     inkscape:zoom="0.61645108"
     inkscape:cx="931.94742"
     inkscape:cy="536.13337"
     inkscape:window-width="1811"
     inkscape:window-height="1164"
     inkscape:window-x="0"
     inkscape:window-y="0"
     inkscape:window-maximized="1"
     inkscape:current-layer="layer1" />
  <defs
     id="defs1">
    <rect
       x="212.52371"
       y="545.58009"
       width="1582.3219"
       height="289.95311"
       id="rect2" />
  </defs>
  <g
     inkscape:label="Layer 1"
     inkscape:groupmode="layer"
     id="layer1">
    <g
       transform="matrix(3.7532957,0,0,3.6199637,-388.92149,-126.75041)"
       stroke-width="2.1167"
       id="g2"
       style="stroke:#3b4252;stroke-linecap:round;stroke-linejoin:round">
      <path
         d="m 171.61,-37.571 c -11.453,-1.12e-4 -22.703,3.1331 -32.622,9.0847 -20.186,12.113 -32.622,34.5 -32.621,58.727 v 156.89 h 46.262 v -52.455 h 37.962 v 52.455 h 46.262 v -156.89 c 2.3e-4,-24.227 -12.435,-46.613 -32.621,-58.727 -9.9183,-5.9516 -21.169,-9.0848 -32.622,-9.0847 z"
         fill="#bf616a"
         id="path1" />
      <rect
         x="130.99001"
         y="12.106"
         width="81.232002"
         height="36.747002"
         rx="0"
         ry="18.374001"
         fill="#5e81ac"
         id="rect1" />
    </g>
    <text
       xml:space="preserve"
       style="font-style:normal;font-variant:normal;font-weight:normal;font-stretch:normal;font-size:16.9333px;font-family:sans-serif;-inkscape-font-specification:sans-serif;text-align:center;text-anchor:middle;fill:#ebcb8b;stroke:#4c566a;stroke-width:1.05833;stroke-linecap:round;stroke-linejoin:round"
       x="249.32533"
       y="162.58104"
       id="text3"><tspan
         sodipodi:role="line"
         id="tspan3"
         style="stroke-width:1.05833"
         x="249.32533"
         y="162.58104" /></text>
    <circle
       id="path4"
       style="fill:#3b4252;stroke:#4c566a;stroke-width:0.264583"
       cx="255.71669"
       cy="129.00017"
       r="0.0099046202" />
    <g
       id="g26"
       transform="matrix(4.8100565,0,0,4.7606503,-1001.5097,-444.18443)">
      <g
         id="g18"
         transform="translate(-8.3958684,21.235317)">
        <path
           id="rect3"
           style="fill:#ebcb8b;stroke:#4c566a;stroke-width:1.05833;stroke-linecap:round;stroke-linejoin:round;stroke-dasharray:none"
           d="m 286.35858,121.43254 h -34.80057 c -1.95572,0 -4.2591,1.71537 -3.53018,3.53018 5.77034,14.3665 -8.67565,41.91028 -8.67565,41.91028 -0.39644,1.91512 1.57446,3.53018 3.53018,3.53018 h 34.80057 c 1.95572,0 3.13374,-1.61506 3.53018,-3.53018 0,0 14.74581,-25.21839 8.67565,-41.91028 -0.66839,-1.83796 -1.57446,-3.53018 -3.53018,-3.53018 z"
           sodipodi:nodetypes="sssssssss" />
        <path
           style="fill:#3b4252;stroke:#4c566a;stroke-width:0.264583;stroke-linecap:round;stroke-linejoin:round;stroke-dasharray:none"
           id="path12"
           d="m 253.41731,129.70616 c 0.52876,1.52577 0.6647,3.15601 0.83867,4.75128 0.18765,1.79359 0.32699,3.5928 0.3781,5.39573 0.0225,0.79391 0.0257,1.56391 0.0327,2.35725 -0.002,1.29148 0.005,0.66801 -0.0171,1.87043 0,0 3.07566,1.55836 3.07566,1.55836 v 0 c -0.0773,-1.25339 -0.0375,-0.60517 -0.11943,-1.94467 -0.0797,-1.26262 -0.1706,-2.525 -0.23047,-3.78878 -0.063,-1.32949 -0.1038,-2.66015 -0.19445,-3.98832 -0.0343,-0.61097 -0.0901,-1.57448 -0.11931,-2.19807 -0.0138,-0.29511 -0.0209,-0.59053 -0.0361,-0.88558 -0.0402,-0.7839 -0.0433,-0.47871 -0.066,-1.14941 -0.003,-0.0901 -0.002,-0.18024 -0.003,-0.27036 z" />
        <path
           style="fill:#3b4252;stroke:#4c566a;stroke-width:0.264583;stroke-linecap:round;stroke-linejoin:round;stroke-dasharray:none"
           id="path13"
           d="m 257.04509,131.66085 c 0.0316,-0.0555 0.0573,-0.11477 0.0947,-0.1665 0.45852,-0.63394 1.1828,-1.01875 1.8612,-1.36677 0.73219,-0.32314 1.51863,-0.51928 2.32352,-0.49754 0.50875,0.0137 0.65889,0.0726 1.14737,0.18374 1.8009,0.91631 -1.42238,-0.88522 -2.18441,-1.22688 -0.16616,-0.0745 0.2577,0.2635 0.34594,0.42278 0.20106,0.36293 0.27395,0.81988 0.24259,1.22817 -0.0184,0.2393 -0.0965,0.4702 -0.14475,0.7053 -0.11257,0.23407 -0.20145,0.48109 -0.33772,0.70219 -0.51765,0.8399 -1.35934,1.51665 -2.30401,1.81077 -0.19211,0.0598 -0.39433,0.0803 -0.5915,0.12038 -0.62429,0.0766 -1.22137,-0.0549 -1.80657,-0.25747 -0.063,-0.0218 -0.14523,-0.1185 -0.1882,-0.0675 -0.11938,0.14153 -0.12926,0.34702 -0.19389,0.52054 0.1006,0.0639 0.19974,0.13011 0.30179,0.19163 0.56155,0.33851 0.31313,0.1604 0.9075,0.54718 0.53258,0.34658 1.03415,0.72788 1.53395,1.11938 0.6616,0.55356 1.31539,1.13091 1.84182,1.81929 0.36446,0.47657 0.41465,0.61068 0.70396,1.13053 0.39888,0.81192 0.62763,1.67869 0.53701,2.58898 -0.0703,0.7061 -0.1766,0.86773 -0.41815,1.53701 -0.14346,0.23908 -0.26523,0.4926 -0.43039,0.71724 -0.1605,0.2183 -0.3392,0.42613 -0.54218,0.6056 -0.53586,0.47381 -1.30462,0.83829 -2.03942,0.74323 -0.244,-0.0316 -0.46853,-0.15038 -0.7028,-0.22557 -0.2226,-0.13611 -0.9034,-0.52041 -0.66779,-0.40833 0.79638,0.37888 1.50984,0.95087 2.35282,1.20999 0.27609,0.0849 -0.39084,-0.42687 -0.56202,-0.65951 -0.35615,-0.48406 -0.47507,-0.78181 -0.73035,-1.30478 0,0 -3.23668,-1.46169 -3.23668,-1.46169 v 0 c 0.26185,0.49636 0.47763,0.93151 0.78762,1.40453 0.16014,0.24437 0.27708,0.53834 0.513,0.71068 2.45293,1.79193 2.57987,1.81398 4.34206,2.64565 0.26521,0.0455 0.52654,0.13635 0.79563,0.13655 0.25456,1.8e-4 0.50966,-0.0562 0.75159,-0.13542 0.24943,-0.0816 0.48634,-0.20353 0.7089,-0.34263 0.77085,-0.48177 1.25986,-1.16465 1.69467,-1.94536 0.11105,-0.26953 0.24482,-0.53077 0.33314,-0.80857 0.0827,-0.2601 0.13263,-0.53008 0.17801,-0.7992 0.0438,-0.25991 0.085,-0.52214 0.0892,-0.78568 0.0111,-0.6851 -0.20412,-1.34119 -0.48632,-1.95476 -0.28663,-0.56013 -0.32018,-0.6705 -0.67832,-1.19063 -0.49673,-0.72139 -1.13195,-1.31977 -1.79532,-1.88568 -0.69854,-0.57827 -1.44062,-1.16806 -2.2195,-1.63611 -0.0664,-0.0399 -0.13692,-0.0727 -0.20538,-0.10905 -0.119,0.13279 -0.25876,0.24957 -0.357,0.39838 -0.0171,0.0259 0.0624,-0.003 0.0932,0.001 0.10252,0.0137 0.20332,0.0387 0.30588,0.0521 0.31506,0.0412 0.59721,0.0658 0.91741,0.0369 0.18568,-0.0168 0.36809,-0.0594 0.55213,-0.0892 0.19926,-0.0654 0.40543,-0.11274 0.59777,-0.19636 0.95554,-0.41543 1.78394,-1.18706 2.34876,-2.05356 0.1563,-0.23979 0.27345,-0.50294 0.41017,-0.7544 0.0738,-0.25499 0.17679,-0.50329 0.2214,-0.76498 0.0704,-0.41299 0.0503,-0.98156 -0.0866,-1.38492 -0.065,-0.19155 -0.11959,-0.42018 -0.28598,-0.5352 -2.74593,-1.89819 -2.39808,-1.7382 -4.12231,-2.31837 -0.50643,-0.0709 -0.65803,-0.11409 -1.18019,-0.0944 -0.84105,0.0317 -1.66127,0.25856 -2.42385,0.60607 -0.17654,0.0903 -0.356,0.17512 -0.52963,0.27093 -0.63675,0.35135 -1.23614,0.77548 -1.78177,1.25572 z" />
        <path
           style="fill:#3b4252;stroke:#4c566a;stroke-width:0.264583;stroke-linecap:round;stroke-linejoin:round;stroke-dasharray:none"
           id="path14"
           d="m 267.01382,132.19006 c 0.0148,0.27864 0.0753,1.41326 0.0761,1.48975 0.005,0.40428 -0.0145,0.80848 -0.0254,1.21264 -0.0135,0.50073 -0.0204,1.00182 -0.0478,1.50198 -0.0571,1.04388 -0.16809,2.04317 -0.27152,3.08285 -0.2268,1.88795 -0.10075,0.97647 -0.37203,2.73526 0,0 2.82287,1.47934 2.82287,1.47934 v 0 c 0.14129,-1.82003 0.0604,-0.88429 0.24564,-2.80698 0.0607,-0.61535 0.23736,-2.44923 0.31451,-3.06453 0.0595,-0.47489 0.13724,-0.94733 0.20674,-1.42086 0.0557,-0.37974 0.0998,-0.76144 0.16902,-1.13896 0.0225,-0.12218 0.23564,-1.0204 0.29969,-1.2914 z" />
        <path
           style="fill:#3b4252;stroke:#4c566a;stroke-width:0.264583;stroke-linecap:round;stroke-linejoin:round;stroke-dasharray:none"
           id="path15"
           d="m 270.77019,134.67266 c 0.65489,-0.35977 1.41999,-0.53201 2.16318,-0.57073 0.25953,-0.0135 0.51975,8e-4 0.77962,10e-4 0.73951,0.10814 1.00563,0.10572 1.71521,0.3798 0.27255,0.10527 1.04431,0.52383 0.78873,0.38232 -0.77042,-0.42652 -1.50773,-0.93291 -2.33387,-1.23777 -0.21968,-0.0811 0.33214,0.33781 0.44744,0.54163 0.10763,0.1903 0.14026,0.41416 0.21037,0.62125 -0.0259,0.5637 0.0276,0.75267 -0.24577,1.26928 -0.34515,0.65225 -0.98753,1.13177 -1.6243,1.47008 -0.22924,0.12179 -0.47435,0.21101 -0.71155,0.31652 -0.92789,0.33325 -1.90889,0.45425 -2.89057,0.3768 -0.42439,-0.0335 -0.5909,-0.0803 -0.98986,-0.16398 -0.20029,0.0263 -0.3529,-0.15188 -0.5411,-0.17067 -0.23916,-0.0239 -0.25882,0.43234 -0.24447,0.51371 0.0169,0.0969 0.15668,0.11921 0.23566,0.17797 0.11732,0.0873 0.23548,0.17343 0.35322,0.26015 1.21359,0.94911 1.49795,1.63825 2.62705,2.80665 0.50187,0.85679 1.08906,1.591 1.60277,2.07606 l 3.4931,0.2827 v 0 c -0.61103,-0.52283 -0.29027,-0.24742 -0.96202,-0.82657 -1.10512,-0.96624 -2.19761,-1.94601 -3.27689,-2.94101 -0.0884,-0.078 -0.17519,-0.15796 -0.26541,-0.23391 -0.0516,-0.0435 -0.0993,-0.15382 -0.16002,-0.12423 -0.13131,0.064 -0.18322,0.22762 -0.27879,0.33808 -0.0103,0.012 -0.053,0.0226 -0.0382,0.0283 0.13938,0.0532 0.31438,-0.0443 0.44452,0.0521 0.36733,0.0288 0.53303,0.0497 0.91951,0.0414 0.98798,-0.0214 1.96763,-0.19877 2.88936,-0.5595 0.24984,-0.11768 0.50916,-0.21704 0.74953,-0.35304 0.64461,-0.36474 1.42111,-0.98549 1.78682,-1.64178 0.29686,-0.53276 0.27479,-0.87818 0.34054,-1.46744 -0.0583,-0.24957 -0.0711,-0.51439 -0.17497,-0.74871 -0.64161,-1.44788 -3.46591,-2.5062 -4.07305,-2.85275 -0.25035,-0.14289 -0.52699,-0.23656 -0.80121,-0.32549 -0.74938,-0.24303 -1.03838,-0.24309 -1.81554,-0.3425 -0.28491,-0.003 -0.56997,-0.0191 -0.85477,-0.0102 -0.86685,0.0273 -1.70431,0.23047 -2.53886,0.44834 z"
           sodipodi:nodetypes="cscsssscsscscscsccccsccsssccccssccsscccc" />
        <path
           style="fill:#3b4252;stroke:#4c566a;stroke-width:0.264583;stroke-linecap:round;stroke-linejoin:round;stroke-dasharray:none"
           id="path16"
           d="m 250.35271,147.05206 c -0.16408,0.99719 -0.22626,2.00578 -0.32315,3.01064 -0.11266,1.1684 -0.24008,2.33532 -0.35799,3.5032 -0.18623,1.82256 -0.36548,3.64733 -0.42291,5.47947 -0.0154,0.49023 -0.0291,0.98102 -0.0159,1.47131 0.0304,1.13228 0.0977,1.34197 0.26917,2.4192 0.25117,1.0696 0.56588,2.15358 1.27484,3.01895 0.35308,0.43098 0.45662,0.4658 0.89362,0.78575 0.29079,0.15799 2.75928,2.0837 4.2186,2.05372 0.63122,-0.013 1.22904,-0.29149 1.72128,-0.66811 0.19713,-0.15084 0.37092,-0.32995 0.55637,-0.49493 0.80584,-0.81185 1.43917,-1.76032 1.98472,-2.76047 0.13473,-0.247 0.26863,-0.49473 0.38976,-0.74867 0.11731,-0.24592 0.21673,-0.49998 0.3251,-0.74998 0.28173,-0.73194 0.51201,-1.48225 0.64351,-2.25654 0.14583,-0.85872 0.21049,-1.72973 0.26816,-2.59755 0.0653,-1.65254 0.0769,-3.30653 0.1194,-4.95973 0.007,-0.75724 0.0858,-1.50961 0.16488,-2.26158 0.021,-0.27375 0.0395,-0.5471 0.075,-0.81941 0,0 -3.43298,-1.79636 -3.43298,-1.79636 v 0 c -0.0249,0.28092 -0.0647,0.56047 -0.0766,0.84241 -0.005,0.80481 0.0745,1.60841 0.0837,2.41307 0.0539,1.66344 0.11849,3.33012 0.005,4.99276 -0.0483,0.58462 -0.0846,1.13081 -0.16698,1.71162 -0.14564,1.02684 -0.38753,2.04326 -0.73467,3.02051 -0.24251,0.59919 -0.34905,0.90666 -0.65537,1.48182 -0.51752,0.97168 -1.18039,1.86586 -2.00083,2.60257 -0.1881,0.13996 -0.36529,0.29595 -0.56432,0.41989 -0.48971,0.30495 -1.05043,0.48575 -1.63176,0.42572 -0.1724,-0.0178 -0.64894,-0.21486 -0.50698,-0.11542 0.83242,0.58309 1.73647,1.05655 2.60471,1.58483 -0.49114,-0.27764 -0.589,-0.29147 -1.00312,-0.70133 -0.82403,-0.81557 -1.25325,-1.91055 -1.60214,-2.99273 -0.0936,-0.38086 -0.20551,-0.75766 -0.28068,-1.14257 -0.40847,-2.09164 -0.39804,-4.31277 -0.20939,-6.42702 0.0568,-0.63617 0.15111,-1.26843 0.22667,-1.90264 0.10919,-0.59793 0.20342,-1.19879 0.32757,-1.7938 0.29885,-1.43231 0.72595,-2.83681 1.23244,-4.20833 z" />
        <path
           style="fill:#3b4252;stroke:#4c566a;stroke-width:0.264583;stroke-linecap:round;stroke-linejoin:round;stroke-dasharray:none"
           id="path17"
           d="m 266.14808,149.72551 c 0.0348,0.19823 0.0805,0.39486 0.10451,0.59469 0.0969,0.8062 0.11102,1.41371 0.1117,2.24112 0,1.12519 -0.0301,1.97514 -0.11702,3.10454 -0.0411,0.53347 -0.10234,1.0652 -0.15351,1.59779 -0.14576,1.26334 -0.32748,2.52263 -0.55637,3.77363 -0.11464,0.62656 -0.2531,1.24824 -0.38185,1.87193 -0.0935,0.46773 -0.17613,0.93757 -0.28143,1.40279 0,0 3.3538,1.78887 3.3538,1.78887 v 0 c 0.076,-0.4907 0.17693,-0.97812 0.19894,-1.47581 0.0265,-0.68122 0.0311,-1.36274 0.0602,-2.04392 0.0559,-1.31165 0.15314,-2.62116 0.26789,-3.92886 0.15179,-1.53693 0.32242,-3.07069 0.49448,-4.60543 0.10438,-0.93117 0.11337,-1.19889 0.26323,-2.06489 0.0292,-0.16861 0.0709,-0.33481 0.10631,-0.50222 z" />
        <path
           style="fill:#3b4252;stroke:#4c566a;stroke-width:0.264583;stroke-linecap:round;stroke-linejoin:round;stroke-dasharray:none"
           id="path18"
           d="m 269.18097,159.72736 c 0.44201,-0.39025 0.9762,-0.68572 1.53254,-0.88007 0.14108,-0.0493 0.28634,-0.0857 0.4295,-0.12852 0.81595,-0.19895 1.65688,-0.13786 2.44986,0.13248 0.17007,0.058 0.33359,0.13371 0.50035,0.20057 1.73411,0.95547 -1.50471,-0.88487 -2.27668,-1.29142 -0.13518,-0.0712 0.24518,0.1834 0.35628,0.28827 0.22418,0.21158 0.39185,0.43416 0.53346,0.70847 0.071,0.13762 0.11938,0.2858 0.17909,0.4287 0.29694,0.87868 0.25408,1.79824 0.16412,2.70591 -0.0702,0.65993 -0.17012,1.31594 -0.28463,1.96946 0,0 3.33745,1.76404 3.33745,1.76404 v 0 c 0.0854,-0.66969 0.18304,-1.3379 0.25582,-2.00914 0.0821,-0.95784 0.12793,-1.92578 -0.11805,-2.86646 -0.11152,-0.3506 -0.16828,-0.59734 -0.35579,-0.91766 -0.11475,-0.19603 -0.43606,-0.60588 -0.6319,-0.72765 -2.99725,-1.86363 -2.3993,-1.57701 -4.04651,-2.30716 -0.17288,-0.0558 -0.34317,-0.12027 -0.51864,-0.16731 -0.85931,-0.23041 -1.75464,-0.24927 -2.61167,-5.3e-4 -0.15219,0.0496 -0.30639,0.0933 -0.45652,0.14874 -0.60642,0.22407 -1.15578,0.56972 -1.74892,0.82297 z" />
      </g>
      <circle
         style="fill:#bf616a;stroke:#4c566a;stroke-width:1.05833;stroke-linecap:round;stroke-linejoin:round;stroke-dasharray:none"
         id="path20"
         cx="276.05353"
         cy="146.74844"
         r="1.537955" />
      <circle
         style="fill:#bf616a;stroke:#4c566a;stroke-width:1.05833;stroke-linecap:round;stroke-linejoin:round;stroke-dasharray:none"
         id="circle20"
         cx="270.36823"
         cy="146.74844"
         r="1.537955" />
      <circle
         style="fill:#bf616a;stroke:#4c566a;stroke-width:1.05833;stroke-linecap:round;stroke-linejoin:round;stroke-dasharray:none"
         id="circle22"
         cx="264.70004"
         cy="146.74844"
         r="1.537955" />
      <circle
         style="fill:#bf616a;stroke:#4c566a;stroke-width:1.05833;stroke-linecap:round;stroke-linejoin:round;stroke-dasharray:none"
         id="circle23"
         cx="258.94693"
         cy="146.74844"
         r="1.537955" />
      <circle
         style="fill:#bf616a;stroke:#4c566a;stroke-width:1.05833;stroke-linecap:round;stroke-linejoin:round;stroke-dasharray:none"
         id="circle24"
         cx="253.54007"
         cy="146.74844"
         r="1.537955" />
      <circle
         style="fill:#bf616a;stroke:#4c566a;stroke-width:1.05833;stroke-linecap:round;stroke-linejoin:round;stroke-dasharray:none"
         id="circle25"
         cx="248.50066"
         cy="146.74844"
         r="1.537955" />
      <circle
         style="fill:#3b4252;stroke:#4c566a;stroke-width:0.264583;stroke-linecap:round;stroke-linejoin:round;stroke-dasharray:none"
         id="circle26"
         cx="243.54228"
         cy="146.74844"
         r="1.537955" />
      <circle
         style="fill:#bf616a;stroke:#4c566a;stroke-width:1.05833;stroke-linecap:round;stroke-linejoin:round;stroke-dasharray:none"
         id="circle21"
         cx="243.54228"
         cy="146.74844"
         r="1.537955" />
    </g>
  </g>
  <metadata
     id="metadata1">
    <rdf:RDF>
      <cc:Work
         rdf:about="">
        <cc:license
           rdf:resource="http://creativecommons.org/publicdomain/zero/1.0/" />
      </cc:Work>
      <cc:License
         rdf:about="http://creativecommons.org/publicdomain/zero/1.0/">
        <cc:permits
           rdf:resource="http://creativecommons.org/ns#Reproduction" />
        <cc:permits
           rdf:resource="http://creativecommons.org/ns#Distribution" />
        <cc:permits
           rdf:resource="http://creativecommons.org/ns#DerivativeWorks" />
      </cc:License>
    </rdf:RDF>
  </metadata>
</svg>
